<svg xmlns="http://www.w3.org/2000/svg" width="356" height="113" viewBox="0 0 356 113" version="1.1"><path d="M 258 20.294 C 256.080 21.266, 255.500 22.339, 255.500 24.921 C 255.500 28.584, 256.253 29.218, 262.606 30.904 C 264.864 31.504, 268.372 33.120, 270.400 34.497 C 274.913 37.559, 275 37.562, 275 34.671 C 275 31.476, 269.321 23.167, 265.576 20.883 C 261.954 18.674, 261.302 18.624, 258 20.294" stroke="none" fill="#8ece10" fill-rule="evenodd"/><path d="M 294.484 8.847 C 287.578 13.058, 277 27.652, 277 32.967 C 277 35.900, 279.330 35.494, 285.041 31.565 C 291.073 27.416, 299.844 24, 304.465 24 C 310.002 24, 313.642 17.443, 311.379 11.545 C 309.712 7.201, 299.783 5.615, 294.484 8.847" stroke="none" fill="#00a84a" fill-rule="evenodd"/><path d="M 123.615 41.481 C 121.479 42.237, 117.944 44.577, 115.760 46.678 L 111.790 50.500 112.504 47 C 112.898 45.075, 113.282 43.050, 113.360 42.500 C 113.437 41.950, 110.927 41.365, 107.781 41.201 C 102.515 40.926, 102.022 41.084, 101.554 43.201 C 101.275 44.465, 99.431 54.275, 97.458 65 C 95.484 75.725, 93.636 85.310, 93.351 86.300 C 92.886 87.917, 93.466 88.069, 99.068 87.800 L 105.303 87.500 107.420 78 C 109.894 66.898, 115.126 56.542, 119.895 53.306 C 126.622 48.742, 127.335 52.053, 123.622 70.612 C 122.314 77.151, 121.026 83.737, 120.760 85.250 L 120.277 88 126.452 88 L 132.627 88 135.813 71.218 C 137.566 61.988, 139 52.966, 139 51.168 C 139 46.439, 136.455 42.138, 133.232 41.422 C 131.729 41.087, 129.825 40.654, 129 40.459 C 128.175 40.264, 125.752 40.724, 123.615 41.481 M 18.500 42.412 C 14.351 44.256, 10.970 48.177, 10.102 52.153 C 8.850 57.884, 10.398 61.919, 15.907 67.285 C 21.198 72.440, 22.079 74.859, 19.457 77.035 C 18.047 78.206, 11.565 78.663, 8.056 77.839 C 7.037 77.600, 6.339 78.915, 5.688 82.299 C 5.181 84.939, 5.081 87.414, 5.467 87.799 C 5.853 88.185, 9.394 88.483, 13.336 88.462 C 21.800 88.416, 28.016 85.589, 31.711 80.102 C 36.017 73.709, 34.491 67.742, 26.580 60.042 C 24.061 57.590, 22 55.013, 22 54.315 C 22 51.865, 26.811 49.711, 31.021 50.276 C 35.568 50.886, 35.693 50.771, 36.591 45.155 L 37.256 41 29.378 41.039 C 25.045 41.061, 20.150 41.678, 18.500 42.412 M 50.503 41.995 C 49.255 44.015, 44.040 72.669, 44.020 77.615 C 43.971 90.019, 55.800 92.926, 66.340 83.101 C 69.727 79.944, 71.091 79.128, 70.685 80.500 C 70.361 81.600, 69.800 83.737, 69.439 85.250 L 68.783 88 74.892 88 C 78.251 88, 81 87.662, 81.001 87.250 C 81.001 86.838, 82.796 77.050, 84.988 65.500 C 87.181 53.950, 88.981 43.712, 88.988 42.750 C 88.998 41.296, 88.079 41, 83.559 41 C 80.566 41, 77.867 41.406, 77.561 41.901 C 77.255 42.397, 76.350 46.219, 75.551 50.396 C 73.243 62.463, 67.169 73.966, 61.507 76.996 C 59.076 78.298, 58.670 78.269, 57.538 76.722 C 56.159 74.836, 56.125 75.178, 59.590 56.531 C 60.915 49.398, 62 42.985, 62 42.281 C 62 40.724, 51.450 40.462, 50.503 41.995" stroke="none" fill="#5d4483" fill-rule="evenodd"/><path d="M 173 19.899 C 164.399 21.725, 160.326 25.866, 157.408 35.750 C 155.935 40.738, 155.690 41, 152.488 41 C 148.568 41, 148.293 41.316, 147.409 46.845 L 146.744 51 150.372 51 C 152.367 51, 154 51.269, 154 51.598 C 154 55.029, 146.370 91.521, 144.991 94.689 C 143.477 98.164, 142.570 98.990, 139.670 99.534 C 137.747 99.895, 135.267 99.902, 134.158 99.550 C 132.433 99.003, 131.938 99.604, 130.734 103.705 C 129.960 106.342, 129.505 108.837, 129.722 109.250 C 129.940 109.662, 133.099 110, 136.743 110 C 148.714 110, 155.087 104.987, 158.358 93 C 159.184 89.975, 161.353 79.288, 163.179 69.251 L 166.500 51.002 171.691 51.001 L 176.882 51 177.776 46.750 C 178.267 44.413, 178.492 42.163, 178.275 41.750 C 178.059 41.337, 175.884 41, 173.441 41 C 169.631 41, 169 40.709, 169 38.950 C 169 36.118, 171.590 31.371, 173.545 30.621 C 174.435 30.280, 177.098 30, 179.463 30 C 183.741 30, 183.768 29.977, 184.926 25.378 C 185.566 22.836, 185.957 20.629, 185.795 20.472 C 184.948 19.654, 176.034 19.255, 173 19.899 M 306.500 26.248 C 303.750 26.804, 301.327 27.411, 301.116 27.597 C 300.905 27.782, 300.229 30.761, 299.612 34.217 L 298.492 40.500 294.502 41 C 291.037 41.434, 290.428 41.895, 289.874 44.500 C 288.581 50.584, 288.749 51, 292.500 51 C 296.634 51, 296.576 50.502, 293.997 63.785 C 291.199 78.198, 291.325 83.017, 294.581 86.076 C 296.816 88.175, 298.091 88.492, 304.087 88.444 C 307.896 88.413, 311.423 87.963, 311.924 87.444 C 312.425 86.925, 313.138 84.433, 313.508 81.907 L 314.180 77.314 309.840 77.407 C 305.577 77.498, 305.495 77.438, 305.235 74 C 305.090 72.075, 305.775 66.225, 306.757 61 L 308.543 51.500 314.017 51 C 319.137 50.532, 319.531 50.306, 320.127 47.500 C 321.486 41.093, 321.425 41, 315.869 41 L 310.738 41 311.385 37.250 C 312.953 28.152, 313.213 25.008, 312.386 25.118 C 311.899 25.183, 309.250 25.692, 306.500 26.248 M 205.422 41.418 C 203.730 42.155, 200.920 44.487, 199.179 46.599 L 196.014 50.439 197.007 46.976 C 197.553 45.072, 198 42.948, 198 42.257 C 198 40.526, 187.111 40.520, 186.486 42.250 C 186.081 43.370, 179.664 76.647, 178.289 84.750 L 177.738 88 183.798 88 L 189.858 88 191.006 82.250 C 192.982 72.346, 194.112 68.720, 196.999 63.025 C 200.246 56.619, 203.554 53.208, 207.035 52.677 C 209.109 52.360, 209.685 51.457, 210.685 46.952 C 212.323 39.577, 211.541 38.754, 205.422 41.418 M 219.508 42.250 C 218.442 45.357, 213 75.271, 213 78.023 C 213 83.126, 215.536 86.781, 220.006 88.120 C 225.672 89.818, 231.063 87.990, 236.539 82.514 C 240.054 78.999, 240.707 78.641, 239.944 80.647 C 239.425 82.013, 239 84.248, 239 85.615 C 239 88.005, 239.217 88.088, 244.677 87.800 L 250.354 87.500 254.152 67 C 259.436 38.475, 259.626 41.500, 252.554 41.500 L 246.608 41.500 244.843 50.468 C 243.842 55.554, 241.687 62.176, 239.864 65.768 C 236.409 72.575, 230.832 78.303, 228.153 77.796 C 225.567 77.307, 225.709 72.819, 228.823 56.757 C 230.395 48.649, 231.453 41.786, 231.174 41.507 C 230.055 40.388, 219.926 41.033, 219.508 42.250 M 271.629 41.791 C 271.052 42.725, 263 84.523, 263 86.586 C 263 87.644, 264.477 88, 268.866 88 L 274.731 88 278.866 66.602 C 281.140 54.833, 283 44.258, 283 43.102 C 283 41.224, 282.421 41, 277.559 41 C 274.566 41, 271.898 41.356, 271.629 41.791 M 334.500 42.412 C 327.864 45.361, 324.230 52.426, 325.989 58.957 C 326.564 61.096, 328.962 64.508, 331.975 67.475 C 337.225 72.646, 338.042 74.890, 335.457 77.035 C 334.047 78.206, 327.565 78.663, 324.056 77.839 C 323.037 77.600, 322.339 78.915, 321.688 82.299 C 321.181 84.939, 321.081 87.414, 321.467 87.799 C 321.853 88.185, 325.393 88.470, 329.334 88.433 C 340.462 88.330, 348.078 83.430, 349.584 75.405 C 350.576 70.119, 349.328 67.195, 343.449 61.032 C 340.452 57.890, 338 54.808, 338 54.183 C 338 51.850, 342.908 49.724, 347.021 50.276 C 351.568 50.886, 351.693 50.771, 352.591 45.155 L 353.256 41 345.378 41.039 C 341.045 41.061, 336.150 41.678, 334.500 42.412" stroke="none" fill="#fc5423" fill-rule="evenodd"/></svg>